# xmcd
#
# Track frame offsets: 
#        150
#        20569
#        36522
#        55568
#        71470
#        89385
#        100196
#        120154
#        133845
#        148215
#        162258
#        180774
#
# Disc length: 2632 seconds
#
# Revision: 0
# Processed by: cddbd v1.5PL3 Copyright (c) Steve Scherf et al.
# Submitted via: ExactAudioCopy v0.95a4
#
DISCID=9b0a460c
DTITLE=Louise Armstrong - Satchmo
DYEAR=1900
DGENRE=Blues
TTITLE0=Dipper Mouth Bluse
TTITLE1=Canal Street Blues
TTITLE2=Hight Society
TTITLE3=All The Wrong You've Done To Me
TTITLE4=Everybody Loves My Baby
TTITLE5=Mandy Mandy Up Your Mind
TTITLE6=See See Rider
TTITLE7=Reckless Blues
TTITLE8=Court House Blues
TTITLE9=Trouble in Mind
TTITLE10=New Orleans Funktion (a) Flee As A Bird - (b) Oh, Didn't He Ra
TTITLE10=mble
TTITLE11=Gut Bucket Blues
EXTD=
EXTT0=
EXTT1=
EXTT2=
EXTT3=
EXTT4=
EXTT5=
EXTT6=
EXTT7=
EXTT8=
EXTT9=
EXTT10=
EXTT11=
PLAYORDER=
